<svg xmlns="http://www.w3.org/2000/svg" viewBox="0 0 193 41" fill="none">
  <path d="M46.0059 8.93848C50.5063 8.93848 55.918 9.97743 55.918 15.6299V27.8945H55.9043C55.9043 30.0371 56.139 32.1801 56.6982 33.1396H50.4023C50.1942 32.4036 50.0127 31.6407 49.9736 30.8652C47.9965 33.0079 45.1345 33.7832 42.377 33.7832C38.0977 33.7831 34.6904 31.5483 34.6904 26.7109C34.6905 21.3875 38.527 20.0995 42.377 19.5605C46.188 18.969 49.7128 19.2315 49.7129 16.458C49.7129 13.6845 47.8794 13.2637 45.6943 13.2637C43.327 13.2637 41.8051 14.2629 41.584 16.8262H35.3799C35.7311 10.7532 40.9332 8.93857 46.0059 8.93848ZM174.309 8.89941C181.983 8.89941 185.703 15.6432 185.261 22.8994H168.976C169.145 27.0135 171.07 28.8798 174.517 28.8799C174.907 28.8799 175.284 28.8406 175.648 28.7617V33.6914C175.193 33.7308 174.751 33.7568 174.296 33.7568C167.168 33.7568 162.759 28.4465 162.759 21.3613C162.759 14.276 167.441 8.89941 174.296 8.89941H174.309ZM88.2012 8.89941C92.7015 8.89941 98.113 9.93779 98.1133 15.5898V27.8545C98.1133 29.997 98.334 32.1399 98.9062 33.0996H92.6113C92.4032 32.3635 92.2207 31.6007 92.1816 30.8252C90.2046 32.9679 87.3298 33.7441 84.5723 33.7441C80.3061 33.744 76.8985 31.5091 76.8984 26.6719C76.8984 21.3482 80.7353 20.0595 84.5723 19.5205C88.3834 18.929 91.9219 19.1916 91.9219 16.418C91.9217 13.6448 90.0744 13.2246 87.9023 13.2246C85.5352 13.2246 84.0132 14.2231 83.792 16.7861H77.5879C77.9263 10.7135 83.1286 8.89952 88.2012 8.89941ZM11.498 8.71582C12.4996 8.71582 13.4756 8.83362 14.4121 9.04395C14.6721 9.09651 14.9063 9.16184 15.1533 9.22754C15.2443 9.2538 15.3222 9.26771 15.4131 9.29395C15.4651 9.30709 15.531 9.32039 15.583 9.34668C19.1076 10.4904 21.826 13.2242 22.1123 17.6406H16.0508C15.6605 14.9988 14.0477 13.7374 11.4727 13.7373C7.50553 13.7373 6.19144 17.7723 6.19141 21.2295C6.19141 25.4096 7.93432 28.3281 11.3291 28.3281C13.5923 28.3281 14.8806 27.3157 15.583 26.0537V26.0938H21.7744C20.3696 30.9048 16.5706 33.5205 11.3809 33.5205C4.57835 33.5203 1.25194e-05 28.788 0 21.4531C0 14.1182 4.1882 8.71595 11.498 8.71582ZM151.338 8.91211C157.932 8.91211 159.598 12.7902 159.598 18.6396V33.1396H153.394V19.8096C153.393 15.932 152.301 14.0264 149.413 14.0264C146.044 14.0264 144.601 15.9847 144.601 20.7695V33.165H138.396V9.54395H144.288V12.8301H144.418C145.992 10.1747 148.711 8.89941 151.325 8.89941L151.338 8.91211ZM31.6982 33.1523H24.9736V0.81543H31.6982V33.1523ZM74.0371 9.79297C74.4793 9.79302 74.9995 9.89885 75.3896 10.0303V16.3262C74.8303 16.1816 73.9064 16.0898 73.165 16.0898C68.6259 16.09 67.0519 19.5075 67.0518 23.6611V33.1523H60.8477V10.1348H66.7402V14.8018H66.8174L66.8311 14.8145C67.9758 11.8438 71.0196 9.79297 74.0371 9.79297ZM132.23 33.1523H126.026V9.79297H132.23V33.1523ZM111.602 25.6465H111.705L116.466 9.53027H122.618L114.983 33.126H108.076L100.35 9.53027H106.854L111.602 25.6465ZM49.7266 21.5977C48.686 22.5573 46.5003 22.6099 44.5752 22.9648C42.6502 23.3855 40.9072 24.0038 40.9072 26.4355C40.9074 28.8669 42.6893 29.4452 44.7051 29.4453C49.5567 29.4453 49.7266 25.4358 49.7266 24.0293V21.5977ZM91.9082 21.5713C90.8676 22.5307 88.6697 22.5704 86.7578 22.9385C84.8328 23.3591 83.0898 23.9905 83.0898 26.4092C83.09 28.8275 84.8718 29.4189 86.8877 29.4189C91.7394 29.4189 91.9082 25.4095 91.9082 24.0029V21.5713ZM174.14 13.7764C170.211 13.7764 169.067 16.9707 168.989 18.7979H179.069C178.497 15.5116 177.144 13.7764 174.14 13.7764ZM132.205 6.44141H126.026V0H132.205V6.44141Z" fill="#263F48"/>
  <path d="M181.19 28.6304V41.0001H186.483V34.204H193V28.6304H181.19Z" fill="#263F48"/>
</svg>